<svg xmlns="http://www.w3.org/2000/svg" xmlns:xlink="http://www.w3.org/1999/xlink" width="500" zoomAndPan="magnify" viewBox="0 0 375 374.999991" height="500" preserveAspectRatio="xMidYMid meet" version="1.0"><defs><filter x="0%" y="0%" width="100%" height="100%" id="5f31aab4ba"><feColorMatrix values="0 0 0 0 1 0 0 0 0 1 0 0 0 0 1 0 0 0 1 0" color-interpolation-filters="sRGB"/></filter><g/><clipPath id="a099584de8"><path d="M 75.277344 162.90625 L 123.71875 162.90625 L 123.71875 202.273438 L 75.277344 202.273438 Z M 75.277344 162.90625 " clip-rule="nonzero"/></clipPath><clipPath id="398c5ddf24"><path d="M 93.898438 162.90625 L 118.269531 162.90625 C 120.003906 162.90625 121.636719 163.742188 122.652344 165.152344 C 123.667969 166.5625 123.945312 168.371094 123.394531 170.019531 L 115.015625 195.160156 C 113.601562 199.410156 109.625 202.273438 105.144531 202.273438 L 80.777344 202.273438 C 79.039062 202.273438 77.40625 201.441406 76.390625 200.03125 C 75.375 198.621094 75.097656 196.808594 75.648438 195.160156 L 84.027344 170.019531 C 85.445312 165.773438 89.421875 162.90625 93.898438 162.90625 Z M 93.898438 162.90625 " clip-rule="nonzero"/></clipPath><mask id="1b3ea7f878"><g filter="url(#5f31aab4ba)"><rect x="-37.5" width="450" fill="#000000" y="-37.499999" height="449.999989" fill-opacity="0.8"/></g></mask><clipPath id="d53c66dc8f"><path d="M 2.9375 0.882812 L 53.277344 0.882812 L 53.277344 41.664062 L 2.9375 41.664062 Z M 2.9375 0.882812 " clip-rule="nonzero"/></clipPath><clipPath id="eb00c62c7a"><path d="M 21.960938 0.882812 L 47.742188 0.882812 C 49.480469 0.882812 51.113281 1.714844 52.128906 3.125 C 53.144531 4.535156 53.421875 6.347656 52.871094 7.996094 L 44.019531 34.546875 C 42.605469 38.796875 38.628906 41.664062 34.148438 41.664062 L 8.367188 41.664062 C 6.628906 41.664062 5 40.828125 3.984375 39.417969 C 2.964844 38.007812 2.691406 36.195312 3.238281 34.546875 L 12.089844 7.996094 C 13.507812 3.746094 17.484375 0.882812 21.960938 0.882812 Z M 21.960938 0.882812 " clip-rule="nonzero"/></clipPath><clipPath id="2ff273e559"><rect x="0" width="56" y="0" height="42"/></clipPath><clipPath id="da005b3eb9"><path d="M 42.867188 137.417969 L 46.617188 137.417969 L 46.617188 245.683594 L 42.867188 245.683594 Z M 42.867188 137.417969 " clip-rule="nonzero"/></clipPath><clipPath id="5719b39991"><path d="M 320.9375 137.417969 L 324.6875 137.417969 L 324.6875 245.683594 L 320.9375 245.683594 Z M 320.9375 137.417969 " clip-rule="nonzero"/></clipPath><clipPath id="bfc0a1bfb8"><path d="M 42.863281 135.53125 L 324.683594 135.53125 L 324.683594 140.242188 L 42.863281 140.242188 Z M 42.863281 135.53125 " clip-rule="nonzero"/></clipPath><clipPath id="eb89f631e3"><path d="M 183.777344 0 L 375 0 L 375 0.253906 L 183.777344 0.253906 Z M 183.777344 0 " clip-rule="nonzero"/></clipPath><clipPath id="4d51a5b4d3"><path d="M 42.871094 243.8125 L 324.6875 243.8125 L 324.6875 247.5625 L 42.871094 247.5625 Z M 42.871094 243.8125 " clip-rule="nonzero"/></clipPath></defs><g clip-path="url(#a099584de8)"><g clip-path="url(#398c5ddf24)"><path fill="#0558ee" d="M 73.277344 162.90625 L 125.714844 162.90625 L 125.714844 202.273438 L 73.277344 202.273438 Z M 73.277344 162.90625 " fill-opacity="1" fill-rule="nonzero"/></g></g><g mask="url(#1b3ea7f878)"><g transform="matrix(1, 0, 0, 1, 63, 156)"><g clip-path="url(#2ff273e559)"><g clip-path="url(#d53c66dc8f)"><g clip-path="url(#eb00c62c7a)"><path fill="#21e8e6" d="M 0.867188 0.882812 L 55.191406 0.882812 L 55.191406 41.664062 L 0.867188 41.664062 Z M 0.867188 0.882812 " fill-opacity="1" fill-rule="nonzero"/></g></g></g></g></g><g fill="#f2f2f2" fill-opacity="1"><g transform="translate(142.765058, 200.002483)"><g><path d="M 2.171875 -49.265625 C 1.660156 -49.265625 1.40625 -49.519531 1.40625 -50.03125 C 1.40625 -50.550781 1.660156 -50.8125 2.171875 -50.8125 L 37.140625 -50.8125 C 37.703125 -50.8125 37.984375 -50.550781 37.984375 -50.03125 C 37.984375 -49.519531 37.703125 -49.265625 37.140625 -49.265625 Z M 2.171875 -39.171875 C 1.660156 -39.171875 1.40625 -39.472656 1.40625 -40.078125 C 1.40625 -40.597656 1.660156 -40.859375 2.171875 -40.859375 L 14.71875 -40.859375 C 15.226562 -40.859375 15.484375 -40.597656 15.484375 -40.078125 L 15.484375 0 C 15.484375 0.507812 15.226562 0.765625 14.71875 0.765625 C 14.15625 0.765625 13.875 0.507812 13.875 0 L 13.875 -39.171875 Z M 37.21875 -40.859375 C 37.726562 -40.859375 37.984375 -40.597656 37.984375 -40.078125 C 37.984375 -39.472656 37.726562 -39.171875 37.21875 -39.171875 L 25.4375 -39.171875 L 25.4375 0 C 25.4375 0.507812 25.179688 0.765625 24.671875 0.765625 C 24.148438 0.765625 23.890625 0.507812 23.890625 0 L 23.890625 -40.078125 C 23.890625 -40.597656 24.148438 -40.859375 24.671875 -40.859375 Z M 37.21875 -40.859375 "/></g></g></g><g fill="#f2f2f2" fill-opacity="1"><g transform="translate(183.755729, 200.002483)"><g><path d="M 21.296875 -50.8125 C 25.035156 -50.8125 27.988281 -49.863281 30.15625 -47.96875 C 32.332031 -46.070312 33.421875 -43.421875 33.421875 -40.015625 C 33.421875 -37.066406 32.472656 -34.566406 30.578125 -32.515625 C 28.691406 -30.460938 26.300781 -28.59375 23.40625 -26.90625 L 36.9375 -13.875 C 38.144531 -15.320312 39.132812 -16.988281 39.90625 -18.875 C 40.675781 -20.769531 41.320312 -22.816406 41.84375 -25.015625 L 48.078125 -25.015625 C 47.328125 -21.984375 46.390625 -19.191406 45.265625 -16.640625 C 44.148438 -14.097656 42.703125 -11.867188 40.921875 -9.953125 L 51.15625 0 L 42.8125 0 L 36.71875 -5.890625 C 34.519531 -3.921875 32.066406 -2.328125 29.359375 -1.109375 C 26.648438 0.0976562 23.359375 0.703125 19.484375 0.703125 C 14.617188 0.703125 10.773438 -0.488281 7.953125 -2.875 C 5.128906 -5.257812 3.71875 -8.644531 3.71875 -13.03125 C 3.71875 -16.582031 4.6875 -19.457031 6.625 -21.65625 C 8.5625 -23.851562 11.1875 -25.882812 14.5 -27.75 C 13.007812 -29.4375 11.617188 -31.234375 10.328125 -33.140625 C 9.046875 -35.054688 8.40625 -37.300781 8.40625 -39.875 C 8.40625 -43.28125 9.550781 -45.953125 11.84375 -47.890625 C 14.132812 -49.835938 17.285156 -50.8125 21.296875 -50.8125 Z M 21.09375 -45.765625 C 19.132812 -45.765625 17.535156 -45.25 16.296875 -44.21875 C 15.054688 -43.1875 14.4375 -41.757812 14.4375 -39.9375 C 14.4375 -38.257812 14.878906 -36.707031 15.765625 -35.28125 C 16.648438 -33.851562 17.9375 -32.273438 19.625 -30.546875 C 22.375 -32.140625 24.34375 -33.632812 25.53125 -35.03125 C 26.726562 -36.4375 27.328125 -38.097656 27.328125 -40.015625 C 27.328125 -41.691406 26.765625 -43.066406 25.640625 -44.140625 C 24.523438 -45.222656 23.007812 -45.765625 21.09375 -45.765625 Z M 18.21875 -23.890625 C 15.695312 -22.398438 13.722656 -20.882812 12.296875 -19.34375 C 10.867188 -17.800781 10.15625 -15.769531 10.15625 -13.25 C 10.15625 -10.675781 11.019531 -8.617188 12.75 -7.078125 C 14.476562 -5.535156 16.789062 -4.765625 19.6875 -4.765625 C 22.675781 -4.765625 25.234375 -5.253906 27.359375 -6.234375 C 29.484375 -7.210938 31.296875 -8.378906 32.796875 -9.734375 Z M 18.21875 -23.890625 "/></g></g></g><g fill="#f2f2f2" fill-opacity="1"><g transform="translate(236.097617, 200.002483)"><g><path d="M 7.28125 0 C 7.28125 0.507812 7 0.765625 6.4375 0.765625 C 5.882812 0.765625 5.609375 0.507812 5.609375 0 L 5.609375 -50.109375 C 5.609375 -50.617188 5.890625 -50.875 6.453125 -50.875 L 32.375 -50.875 C 32.882812 -50.875 33.140625 -50.601562 33.140625 -50.0625 C 33.140625 -49.53125 32.882812 -49.265625 32.375 -49.265625 L 7.28125 -49.265625 Z M 32.375 -40.859375 C 32.882812 -40.859375 33.140625 -40.585938 33.140625 -40.046875 C 33.140625 -39.515625 32.882812 -39.25 32.375 -39.25 L 17.3125 -39.25 L 17.3125 -30.90625 L 27.75 -30.90625 C 28.257812 -30.90625 28.515625 -30.625 28.515625 -30.0625 C 28.515625 -29.5 28.257812 -29.21875 27.75 -29.21875 L 16.46875 -29.21875 C 15.90625 -29.21875 15.625 -29.5 15.625 -30.0625 L 15.625 -40.078125 C 15.625 -40.597656 15.90625 -40.859375 16.46875 -40.859375 Z M 27.75 -20.890625 C 28.257812 -20.890625 28.515625 -20.609375 28.515625 -20.046875 C 28.515625 -19.484375 28.257812 -19.203125 27.75 -19.203125 L 17.3125 -19.203125 L 17.3125 0 C 17.3125 0.507812 17.03125 0.765625 16.46875 0.765625 C 15.90625 0.765625 15.625 0.507812 15.625 0 L 15.625 -20.046875 C 15.625 -20.609375 15.90625 -20.890625 16.46875 -20.890625 Z M 27.75 -20.890625 "/></g></g></g><g fill="#f2f2f2" fill-opacity="1"><g transform="translate(67.559134, 225.316495)"><g><path d="M 9 -11.140625 L 9 -8.953125 L 6.046875 -8.953125 L 6.046875 0 L 3.328125 0 L 3.328125 -8.953125 L 0.375 -8.953125 L 0.375 -11.140625 Z M 9 -11.140625 "/></g></g></g><g fill="#f2f2f2" fill-opacity="1"><g transform="translate(76.933804, 225.316495)"><g><path d="M 9.328125 -4.5625 C 9.328125 -4.3125 9.3125 -4.050781 9.28125 -3.78125 L 3.140625 -3.78125 C 3.179688 -3.226562 3.359375 -2.804688 3.671875 -2.515625 C 3.984375 -2.222656 4.367188 -2.078125 4.828125 -2.078125 C 5.503906 -2.078125 5.972656 -2.363281 6.234375 -2.9375 L 9.125 -2.9375 C 8.96875 -2.351562 8.695312 -1.828125 8.3125 -1.359375 C 7.925781 -0.898438 7.441406 -0.535156 6.859375 -0.265625 C 6.285156 -0.00390625 5.640625 0.125 4.921875 0.125 C 4.046875 0.125 3.269531 -0.0546875 2.59375 -0.421875 C 1.914062 -0.796875 1.382812 -1.328125 1 -2.015625 C 0.625 -2.703125 0.4375 -3.503906 0.4375 -4.421875 C 0.4375 -5.335938 0.625 -6.140625 1 -6.828125 C 1.375 -7.515625 1.898438 -8.039062 2.578125 -8.40625 C 3.253906 -8.78125 4.035156 -8.96875 4.921875 -8.96875 C 5.773438 -8.96875 6.535156 -8.785156 7.203125 -8.421875 C 7.867188 -8.066406 8.390625 -7.554688 8.765625 -6.890625 C 9.140625 -6.234375 9.328125 -5.457031 9.328125 -4.5625 Z M 6.546875 -5.28125 C 6.546875 -5.75 6.382812 -6.117188 6.0625 -6.390625 C 5.75 -6.660156 5.359375 -6.796875 4.890625 -6.796875 C 4.429688 -6.796875 4.046875 -6.664062 3.734375 -6.40625 C 3.421875 -6.144531 3.226562 -5.769531 3.15625 -5.28125 Z M 6.546875 -5.28125 "/></g></g></g><g fill="#f2f2f2" fill-opacity="1"><g transform="translate(86.705037, 225.316495)"><g><path d="M 0.4375 -4.421875 C 0.4375 -5.335938 0.625 -6.140625 1 -6.828125 C 1.375 -7.515625 1.894531 -8.039062 2.5625 -8.40625 C 3.238281 -8.78125 4.015625 -8.96875 4.890625 -8.96875 C 5.992188 -8.96875 6.914062 -8.675781 7.65625 -8.09375 C 8.40625 -7.519531 8.898438 -6.703125 9.140625 -5.640625 L 6.25 -5.640625 C 6.007812 -6.316406 5.539062 -6.65625 4.84375 -6.65625 C 4.34375 -6.65625 3.941406 -6.460938 3.640625 -6.078125 C 3.347656 -5.691406 3.203125 -5.140625 3.203125 -4.421875 C 3.203125 -3.703125 3.347656 -3.148438 3.640625 -2.765625 C 3.941406 -2.378906 4.34375 -2.1875 4.84375 -2.1875 C 5.539062 -2.1875 6.007812 -2.523438 6.25 -3.203125 L 9.140625 -3.203125 C 8.898438 -2.171875 8.40625 -1.359375 7.65625 -0.765625 C 6.90625 -0.171875 5.984375 0.125 4.890625 0.125 C 4.015625 0.125 3.238281 -0.0546875 2.5625 -0.421875 C 1.894531 -0.796875 1.375 -1.328125 1 -2.015625 C 0.625 -2.703125 0.4375 -3.503906 0.4375 -4.421875 Z M 0.4375 -4.421875 "/></g></g></g><g fill="#f2f2f2" fill-opacity="1"><g transform="translate(96.301782, 225.316495)"><g><path d="M 6.421875 -8.9375 C 7.441406 -8.9375 8.253906 -8.601562 8.859375 -7.9375 C 9.472656 -7.269531 9.78125 -6.347656 9.78125 -5.171875 L 9.78125 0 L 7.09375 0 L 7.09375 -4.8125 C 7.09375 -5.394531 6.9375 -5.847656 6.625 -6.171875 C 6.320312 -6.503906 5.910156 -6.671875 5.390625 -6.671875 C 4.867188 -6.671875 4.453125 -6.503906 4.140625 -6.171875 C 3.835938 -5.847656 3.6875 -5.394531 3.6875 -4.8125 L 3.6875 0 L 0.984375 0 L 0.984375 -11.734375 L 3.6875 -11.734375 L 3.6875 -7.65625 C 3.96875 -8.050781 4.34375 -8.363281 4.8125 -8.59375 C 5.289062 -8.820312 5.828125 -8.9375 6.421875 -8.9375 Z M 6.421875 -8.9375 "/></g></g></g><g fill="#f2f2f2" fill-opacity="1"><g transform="translate(106.993033, 225.316495)"><g><path d="M 6.375 -8.9375 C 7.40625 -8.9375 8.226562 -8.601562 8.84375 -7.9375 C 9.46875 -7.269531 9.78125 -6.347656 9.78125 -5.171875 L 9.78125 0 L 7.09375 0 L 7.09375 -4.8125 C 7.09375 -5.394531 6.9375 -5.847656 6.625 -6.171875 C 6.320312 -6.503906 5.910156 -6.671875 5.390625 -6.671875 C 4.867188 -6.671875 4.453125 -6.503906 4.140625 -6.171875 C 3.835938 -5.847656 3.6875 -5.394531 3.6875 -4.8125 L 3.6875 0 L 0.984375 0 L 0.984375 -8.84375 L 3.6875 -8.84375 L 3.6875 -7.671875 C 3.96875 -8.066406 4.335938 -8.375 4.796875 -8.59375 C 5.265625 -8.820312 5.789062 -8.9375 6.375 -8.9375 Z M 6.375 -8.9375 "/></g></g></g><g fill="#f2f2f2" fill-opacity="1"><g transform="translate(117.684284, 225.316495)"><g><path d="M 5.015625 0.125 C 4.148438 0.125 3.367188 -0.0546875 2.671875 -0.421875 C 1.984375 -0.796875 1.4375 -1.328125 1.03125 -2.015625 C 0.632812 -2.703125 0.4375 -3.503906 0.4375 -4.421875 C 0.4375 -5.328125 0.640625 -6.125 1.046875 -6.8125 C 1.453125 -7.507812 2.003906 -8.039062 2.703125 -8.40625 C 3.398438 -8.78125 4.179688 -8.96875 5.046875 -8.96875 C 5.910156 -8.96875 6.691406 -8.78125 7.390625 -8.40625 C 8.085938 -8.039062 8.632812 -7.507812 9.03125 -6.8125 C 9.4375 -6.125 9.640625 -5.328125 9.640625 -4.421875 C 9.640625 -3.515625 9.4375 -2.710938 9.03125 -2.015625 C 8.625 -1.328125 8.066406 -0.796875 7.359375 -0.421875 C 6.660156 -0.0546875 5.878906 0.125 5.015625 0.125 Z M 5.015625 -2.21875 C 5.523438 -2.21875 5.960938 -2.40625 6.328125 -2.78125 C 6.703125 -3.164062 6.890625 -3.710938 6.890625 -4.421875 C 6.890625 -5.128906 6.710938 -5.671875 6.359375 -6.046875 C 6.003906 -6.429688 5.566406 -6.625 5.046875 -6.625 C 4.515625 -6.625 4.070312 -6.4375 3.71875 -6.0625 C 3.375 -5.6875 3.203125 -5.140625 3.203125 -4.421875 C 3.203125 -3.710938 3.375 -3.164062 3.71875 -2.78125 C 4.0625 -2.40625 4.492188 -2.21875 5.015625 -2.21875 Z M 5.015625 -2.21875 "/></g></g></g><g fill="#f2f2f2" fill-opacity="1"><g transform="translate(127.788628, 225.316495)"><g><path d="M 3.6875 -11.734375 L 3.6875 0 L 0.984375 0 L 0.984375 -11.734375 Z M 3.6875 -11.734375 "/></g></g></g><g fill="#f2f2f2" fill-opacity="1"><g transform="translate(132.468029, 225.316495)"><g><path d="M 5.015625 0.125 C 4.148438 0.125 3.367188 -0.0546875 2.671875 -0.421875 C 1.984375 -0.796875 1.4375 -1.328125 1.03125 -2.015625 C 0.632812 -2.703125 0.4375 -3.503906 0.4375 -4.421875 C 0.4375 -5.328125 0.640625 -6.125 1.046875 -6.8125 C 1.453125 -7.507812 2.003906 -8.039062 2.703125 -8.40625 C 3.398438 -8.78125 4.179688 -8.96875 5.046875 -8.96875 C 5.910156 -8.96875 6.691406 -8.78125 7.390625 -8.40625 C 8.085938 -8.039062 8.632812 -7.507812 9.03125 -6.8125 C 9.4375 -6.125 9.640625 -5.328125 9.640625 -4.421875 C 9.640625 -3.515625 9.4375 -2.710938 9.03125 -2.015625 C 8.625 -1.328125 8.066406 -0.796875 7.359375 -0.421875 C 6.660156 -0.0546875 5.878906 0.125 5.015625 0.125 Z M 5.015625 -2.21875 C 5.523438 -2.21875 5.960938 -2.40625 6.328125 -2.78125 C 6.703125 -3.164062 6.890625 -3.710938 6.890625 -4.421875 C 6.890625 -5.128906 6.710938 -5.671875 6.359375 -6.046875 C 6.003906 -6.429688 5.566406 -6.625 5.046875 -6.625 C 4.515625 -6.625 4.070312 -6.4375 3.71875 -6.0625 C 3.375 -5.6875 3.203125 -5.140625 3.203125 -4.421875 C 3.203125 -3.710938 3.375 -3.164062 3.71875 -2.78125 C 4.0625 -2.40625 4.492188 -2.21875 5.015625 -2.21875 Z M 5.015625 -2.21875 "/></g></g></g><g fill="#f2f2f2" fill-opacity="1"><g transform="translate(142.572373, 225.316495)"><g><path d="M 4.34375 -8.96875 C 4.96875 -8.96875 5.515625 -8.84375 5.984375 -8.59375 C 6.453125 -8.34375 6.816406 -8.007812 7.078125 -7.59375 L 7.078125 -8.84375 L 9.78125 -8.84375 L 9.78125 -0.015625 C 9.78125 0.796875 9.617188 1.53125 9.296875 2.1875 C 8.972656 2.851562 8.476562 3.378906 7.8125 3.765625 C 7.15625 4.160156 6.335938 4.359375 5.359375 4.359375 C 4.046875 4.359375 2.984375 4.046875 2.171875 3.421875 C 1.359375 2.804688 0.894531 1.972656 0.78125 0.921875 L 3.453125 0.921875 C 3.535156 1.253906 3.734375 1.519531 4.046875 1.71875 C 4.367188 1.914062 4.765625 2.015625 5.234375 2.015625 C 5.796875 2.015625 6.242188 1.851562 6.578125 1.53125 C 6.910156 1.207031 7.078125 0.691406 7.078125 -0.015625 L 7.078125 -1.265625 C 6.804688 -0.859375 6.4375 -0.523438 5.96875 -0.265625 C 5.507812 -0.00390625 4.96875 0.125 4.34375 0.125 C 3.613281 0.125 2.953125 -0.0625 2.359375 -0.4375 C 1.765625 -0.8125 1.296875 -1.34375 0.953125 -2.03125 C 0.609375 -2.726562 0.4375 -3.53125 0.4375 -4.4375 C 0.4375 -5.34375 0.609375 -6.140625 0.953125 -6.828125 C 1.296875 -7.515625 1.765625 -8.039062 2.359375 -8.40625 C 2.953125 -8.78125 3.613281 -8.96875 4.34375 -8.96875 Z M 7.078125 -4.421875 C 7.078125 -5.097656 6.890625 -5.628906 6.515625 -6.015625 C 6.140625 -6.410156 5.679688 -6.609375 5.140625 -6.609375 C 4.597656 -6.609375 4.140625 -6.414062 3.765625 -6.03125 C 3.390625 -5.644531 3.203125 -5.113281 3.203125 -4.4375 C 3.203125 -3.757812 3.390625 -3.222656 3.765625 -2.828125 C 4.140625 -2.429688 4.597656 -2.234375 5.140625 -2.234375 C 5.679688 -2.234375 6.140625 -2.425781 6.515625 -2.8125 C 6.890625 -3.207031 7.078125 -3.742188 7.078125 -4.421875 Z M 7.078125 -4.421875 "/></g></g></g><g fill="#f2f2f2" fill-opacity="1"><g transform="translate(153.342931, 225.316495)"><g><path d="M 10.015625 -8.84375 L 4.46875 4.203125 L 1.546875 4.203125 L 3.578125 -0.296875 L -0.015625 -8.84375 L 3.015625 -8.84375 L 5.0625 -3.3125 L 7.09375 -8.84375 Z M 10.015625 -8.84375 "/></g></g></g><g fill="#f2f2f2" fill-opacity="1"><g transform="translate(163.367961, 225.316495)"><g/></g></g><g fill="#f2f2f2" fill-opacity="1"><g transform="translate(166.730789, 225.316495)"><g><path d="M 0.4375 -4.4375 C 0.4375 -5.34375 0.609375 -6.140625 0.953125 -6.828125 C 1.296875 -7.515625 1.765625 -8.039062 2.359375 -8.40625 C 2.953125 -8.78125 3.613281 -8.96875 4.34375 -8.96875 C 4.96875 -8.96875 5.515625 -8.84375 5.984375 -8.59375 C 6.453125 -8.34375 6.816406 -8.007812 7.078125 -7.59375 L 7.078125 -8.84375 L 9.78125 -8.84375 L 9.78125 0 L 7.078125 0 L 7.078125 -1.25 C 6.804688 -0.84375 6.4375 -0.507812 5.96875 -0.25 C 5.5 0 4.953125 0.125 4.328125 0.125 C 3.609375 0.125 2.953125 -0.0625 2.359375 -0.4375 C 1.765625 -0.8125 1.296875 -1.34375 0.953125 -2.03125 C 0.609375 -2.726562 0.4375 -3.53125 0.4375 -4.4375 Z M 7.078125 -4.421875 C 7.078125 -5.097656 6.890625 -5.628906 6.515625 -6.015625 C 6.140625 -6.410156 5.679688 -6.609375 5.140625 -6.609375 C 4.597656 -6.609375 4.140625 -6.414062 3.765625 -6.03125 C 3.390625 -5.644531 3.203125 -5.113281 3.203125 -4.4375 C 3.203125 -3.757812 3.390625 -3.222656 3.765625 -2.828125 C 4.140625 -2.429688 4.597656 -2.234375 5.140625 -2.234375 C 5.679688 -2.234375 6.140625 -2.425781 6.515625 -2.8125 C 6.890625 -3.207031 7.078125 -3.742188 7.078125 -4.421875 Z M 7.078125 -4.421875 "/></g></g></g><g fill="#f2f2f2" fill-opacity="1"><g transform="translate(177.501347, 225.316495)"><g><path d="M 5.921875 -2.296875 L 5.921875 0 L 4.53125 0 C 3.550781 0 2.785156 -0.238281 2.234375 -0.71875 C 1.679688 -1.195312 1.40625 -1.984375 1.40625 -3.078125 L 1.40625 -6.59375 L 0.328125 -6.59375 L 0.328125 -8.84375 L 1.40625 -8.84375 L 1.40625 -11 L 4.125 -11 L 4.125 -8.84375 L 5.90625 -8.84375 L 5.90625 -6.59375 L 4.125 -6.59375 L 4.125 -3.046875 C 4.125 -2.785156 4.1875 -2.59375 4.3125 -2.46875 C 4.4375 -2.351562 4.648438 -2.296875 4.953125 -2.296875 Z M 5.921875 -2.296875 "/></g></g></g><g fill="#f2f2f2" fill-opacity="1"><g transform="translate(183.941483, 225.316495)"><g/></g></g><g fill="#f2f2f2" fill-opacity="1"><g transform="translate(187.30431, 225.316495)"><g><path d="M 10.015625 -8.84375 L 4.46875 4.203125 L 1.546875 4.203125 L 3.578125 -0.296875 L -0.015625 -8.84375 L 3.015625 -8.84375 L 5.0625 -3.3125 L 7.09375 -8.84375 Z M 10.015625 -8.84375 "/></g></g></g><g fill="#f2f2f2" fill-opacity="1"><g transform="translate(197.329347, 225.316495)"><g><path d="M 5.015625 0.125 C 4.148438 0.125 3.367188 -0.0546875 2.671875 -0.421875 C 1.984375 -0.796875 1.4375 -1.328125 1.03125 -2.015625 C 0.632812 -2.703125 0.4375 -3.503906 0.4375 -4.421875 C 0.4375 -5.328125 0.640625 -6.125 1.046875 -6.8125 C 1.453125 -7.507812 2.003906 -8.039062 2.703125 -8.40625 C 3.398438 -8.78125 4.179688 -8.96875 5.046875 -8.96875 C 5.910156 -8.96875 6.691406 -8.78125 7.390625 -8.40625 C 8.085938 -8.039062 8.632812 -7.507812 9.03125 -6.8125 C 9.4375 -6.125 9.640625 -5.328125 9.640625 -4.421875 C 9.640625 -3.515625 9.4375 -2.710938 9.03125 -2.015625 C 8.625 -1.328125 8.066406 -0.796875 7.359375 -0.421875 C 6.660156 -0.0546875 5.878906 0.125 5.015625 0.125 Z M 5.015625 -2.21875 C 5.523438 -2.21875 5.960938 -2.40625 6.328125 -2.78125 C 6.703125 -3.164062 6.890625 -3.710938 6.890625 -4.421875 C 6.890625 -5.128906 6.710938 -5.671875 6.359375 -6.046875 C 6.003906 -6.429688 5.566406 -6.625 5.046875 -6.625 C 4.515625 -6.625 4.070312 -6.4375 3.71875 -6.0625 C 3.375 -5.6875 3.203125 -5.140625 3.203125 -4.421875 C 3.203125 -3.710938 3.375 -3.164062 3.71875 -2.78125 C 4.0625 -2.40625 4.492188 -2.21875 5.015625 -2.21875 Z M 5.015625 -2.21875 "/></g></g></g><g fill="#f2f2f2" fill-opacity="1"><g transform="translate(207.433684, 225.316495)"><g><path d="M 9.71875 -8.84375 L 9.71875 0 L 7.015625 0 L 7.015625 -1.203125 C 6.734375 -0.816406 6.359375 -0.503906 5.890625 -0.265625 C 5.421875 -0.0234375 4.898438 0.09375 4.328125 0.09375 C 3.648438 0.09375 3.050781 -0.0546875 2.53125 -0.359375 C 2.019531 -0.660156 1.617188 -1.09375 1.328125 -1.65625 C 1.046875 -2.226562 0.90625 -2.898438 0.90625 -3.671875 L 0.90625 -8.84375 L 3.59375 -8.84375 L 3.59375 -4.046875 C 3.59375 -3.453125 3.742188 -2.988281 4.046875 -2.65625 C 4.359375 -2.332031 4.773438 -2.171875 5.296875 -2.171875 C 5.828125 -2.171875 6.242188 -2.332031 6.546875 -2.65625 C 6.859375 -2.988281 7.015625 -3.453125 7.015625 -4.046875 L 7.015625 -8.84375 Z M 9.71875 -8.84375 "/></g></g></g><g fill="#f2f2f2" fill-opacity="1"><g transform="translate(218.124928, 225.316495)"><g><path d="M 3.6875 -7.375 C 4.007812 -7.863281 4.40625 -8.242188 4.875 -8.515625 C 5.351562 -8.796875 5.882812 -8.9375 6.46875 -8.9375 L 6.46875 -6.078125 L 5.71875 -6.078125 C 5.039062 -6.078125 4.53125 -5.929688 4.1875 -5.640625 C 3.851562 -5.347656 3.6875 -4.835938 3.6875 -4.109375 L 3.6875 0 L 0.984375 0 L 0.984375 -8.84375 L 3.6875 -8.84375 Z M 3.6875 -7.375 "/></g></g></g><g fill="#f2f2f2" fill-opacity="1"><g transform="translate(224.914029, 225.316495)"><g/></g></g><g fill="#f2f2f2" fill-opacity="1"><g transform="translate(228.276856, 225.316495)"><g><path d="M 5.421875 -6.59375 L 3.96875 -6.59375 L 3.96875 0 L 1.25 0 L 1.25 -6.59375 L 0.265625 -6.59375 L 0.265625 -8.84375 L 1.25 -8.84375 L 1.25 -9.109375 C 1.25 -10.191406 1.5625 -11.015625 2.1875 -11.578125 C 2.8125 -12.148438 3.726562 -12.4375 4.9375 -12.4375 C 5.132812 -12.4375 5.28125 -12.429688 5.375 -12.421875 L 5.375 -10.125 C 4.851562 -10.15625 4.488281 -10.078125 4.28125 -9.890625 C 4.070312 -9.710938 3.96875 -9.390625 3.96875 -8.921875 L 3.96875 -8.84375 L 5.421875 -8.84375 Z M 5.421875 -6.59375 "/></g></g></g><g fill="#f2f2f2" fill-opacity="1"><g transform="translate(233.987312, 225.316495)"><g><path d="M 2.34375 -9.765625 C 1.875 -9.765625 1.488281 -9.90625 1.1875 -10.1875 C 0.882812 -10.46875 0.734375 -10.816406 0.734375 -11.234375 C 0.734375 -11.648438 0.882812 -12 1.1875 -12.28125 C 1.488281 -12.5625 1.875 -12.703125 2.34375 -12.703125 C 2.8125 -12.703125 3.195312 -12.5625 3.5 -12.28125 C 3.800781 -12 3.953125 -11.648438 3.953125 -11.234375 C 3.953125 -10.816406 3.800781 -10.46875 3.5 -10.1875 C 3.195312 -9.90625 2.8125 -9.765625 2.34375 -9.765625 Z M 3.6875 -8.84375 L 3.6875 0 L 0.984375 0 L 0.984375 -8.84375 Z M 3.6875 -8.84375 "/></g></g></g><g fill="#f2f2f2" fill-opacity="1"><g transform="translate(238.666713, 225.316495)"><g><path d="M 6.375 -8.9375 C 7.40625 -8.9375 8.226562 -8.601562 8.84375 -7.9375 C 9.46875 -7.269531 9.78125 -6.347656 9.78125 -5.171875 L 9.78125 0 L 7.09375 0 L 7.09375 -4.8125 C 7.09375 -5.394531 6.9375 -5.847656 6.625 -6.171875 C 6.320312 -6.503906 5.910156 -6.671875 5.390625 -6.671875 C 4.867188 -6.671875 4.453125 -6.503906 4.140625 -6.171875 C 3.835938 -5.847656 3.6875 -5.394531 3.6875 -4.8125 L 3.6875 0 L 0.984375 0 L 0.984375 -8.84375 L 3.6875 -8.84375 L 3.6875 -7.671875 C 3.96875 -8.066406 4.335938 -8.375 4.796875 -8.59375 C 5.265625 -8.820312 5.789062 -8.9375 6.375 -8.9375 Z M 6.375 -8.9375 "/></g></g></g><g fill="#f2f2f2" fill-opacity="1"><g transform="translate(249.357971, 225.316495)"><g><path d="M 4.34375 -8.96875 C 4.96875 -8.96875 5.515625 -8.84375 5.984375 -8.59375 C 6.453125 -8.34375 6.816406 -8.007812 7.078125 -7.59375 L 7.078125 -8.84375 L 9.78125 -8.84375 L 9.78125 -0.015625 C 9.78125 0.796875 9.617188 1.53125 9.296875 2.1875 C 8.972656 2.851562 8.476562 3.378906 7.8125 3.765625 C 7.15625 4.160156 6.335938 4.359375 5.359375 4.359375 C 4.046875 4.359375 2.984375 4.046875 2.171875 3.421875 C 1.359375 2.804688 0.894531 1.972656 0.78125 0.921875 L 3.453125 0.921875 C 3.535156 1.253906 3.734375 1.519531 4.046875 1.71875 C 4.367188 1.914062 4.765625 2.015625 5.234375 2.015625 C 5.796875 2.015625 6.242188 1.851562 6.578125 1.53125 C 6.910156 1.207031 7.078125 0.691406 7.078125 -0.015625 L 7.078125 -1.265625 C 6.804688 -0.859375 6.4375 -0.523438 5.96875 -0.265625 C 5.507812 -0.00390625 4.96875 0.125 4.34375 0.125 C 3.613281 0.125 2.953125 -0.0625 2.359375 -0.4375 C 1.765625 -0.8125 1.296875 -1.34375 0.953125 -2.03125 C 0.609375 -2.726562 0.4375 -3.53125 0.4375 -4.4375 C 0.4375 -5.34375 0.609375 -6.140625 0.953125 -6.828125 C 1.296875 -7.515625 1.765625 -8.039062 2.359375 -8.40625 C 2.953125 -8.78125 3.613281 -8.96875 4.34375 -8.96875 Z M 7.078125 -4.421875 C 7.078125 -5.097656 6.890625 -5.628906 6.515625 -6.015625 C 6.140625 -6.410156 5.679688 -6.609375 5.140625 -6.609375 C 4.597656 -6.609375 4.140625 -6.414062 3.765625 -6.03125 C 3.390625 -5.644531 3.203125 -5.113281 3.203125 -4.4375 C 3.203125 -3.757812 3.390625 -3.222656 3.765625 -2.828125 C 4.140625 -2.429688 4.597656 -2.234375 5.140625 -2.234375 C 5.679688 -2.234375 6.140625 -2.425781 6.515625 -2.8125 C 6.890625 -3.207031 7.078125 -3.742188 7.078125 -4.421875 Z M 7.078125 -4.421875 "/></g></g></g><g fill="#f2f2f2" fill-opacity="1"><g transform="translate(260.128529, 225.316495)"><g><path d="M 9.328125 -4.5625 C 9.328125 -4.3125 9.3125 -4.050781 9.28125 -3.78125 L 3.140625 -3.78125 C 3.179688 -3.226562 3.359375 -2.804688 3.671875 -2.515625 C 3.984375 -2.222656 4.367188 -2.078125 4.828125 -2.078125 C 5.503906 -2.078125 5.972656 -2.363281 6.234375 -2.9375 L 9.125 -2.9375 C 8.96875 -2.351562 8.695312 -1.828125 8.3125 -1.359375 C 7.925781 -0.898438 7.441406 -0.535156 6.859375 -0.265625 C 6.285156 -0.00390625 5.640625 0.125 4.921875 0.125 C 4.046875 0.125 3.269531 -0.0546875 2.59375 -0.421875 C 1.914062 -0.796875 1.382812 -1.328125 1 -2.015625 C 0.625 -2.703125 0.4375 -3.503906 0.4375 -4.421875 C 0.4375 -5.335938 0.625 -6.140625 1 -6.828125 C 1.375 -7.515625 1.898438 -8.039062 2.578125 -8.40625 C 3.253906 -8.78125 4.035156 -8.96875 4.921875 -8.96875 C 5.773438 -8.96875 6.535156 -8.785156 7.203125 -8.421875 C 7.867188 -8.066406 8.390625 -7.554688 8.765625 -6.890625 C 9.140625 -6.234375 9.328125 -5.457031 9.328125 -4.5625 Z M 6.546875 -5.28125 C 6.546875 -5.75 6.382812 -6.117188 6.0625 -6.390625 C 5.75 -6.660156 5.359375 -6.796875 4.890625 -6.796875 C 4.429688 -6.796875 4.046875 -6.664062 3.734375 -6.40625 C 3.421875 -6.144531 3.226562 -5.769531 3.15625 -5.28125 Z M 6.546875 -5.28125 "/></g></g></g><g fill="#f2f2f2" fill-opacity="1"><g transform="translate(269.899769, 225.316495)"><g><path d="M 3.6875 -7.375 C 4.007812 -7.863281 4.40625 -8.242188 4.875 -8.515625 C 5.351562 -8.796875 5.882812 -8.9375 6.46875 -8.9375 L 6.46875 -6.078125 L 5.71875 -6.078125 C 5.039062 -6.078125 4.53125 -5.929688 4.1875 -5.640625 C 3.851562 -5.347656 3.6875 -4.835938 3.6875 -4.109375 L 3.6875 0 L 0.984375 0 L 0.984375 -8.84375 L 3.6875 -8.84375 Z M 3.6875 -7.375 "/></g></g></g><g fill="#f2f2f2" fill-opacity="1"><g transform="translate(276.68887, 225.316495)"><g><path d="M 5.921875 -2.296875 L 5.921875 0 L 4.53125 0 C 3.550781 0 2.785156 -0.238281 2.234375 -0.71875 C 1.679688 -1.195312 1.40625 -1.984375 1.40625 -3.078125 L 1.40625 -6.59375 L 0.328125 -6.59375 L 0.328125 -8.84375 L 1.40625 -8.84375 L 1.40625 -11 L 4.125 -11 L 4.125 -8.84375 L 5.90625 -8.84375 L 5.90625 -6.59375 L 4.125 -6.59375 L 4.125 -3.046875 C 4.125 -2.785156 4.1875 -2.59375 4.3125 -2.46875 C 4.4375 -2.351562 4.648438 -2.296875 4.953125 -2.296875 Z M 5.921875 -2.296875 "/></g></g></g><g fill="#f2f2f2" fill-opacity="1"><g transform="translate(283.129005, 225.316495)"><g><path d="M 2.34375 -9.765625 C 1.875 -9.765625 1.488281 -9.90625 1.1875 -10.1875 C 0.882812 -10.46875 0.734375 -10.816406 0.734375 -11.234375 C 0.734375 -11.648438 0.882812 -12 1.1875 -12.28125 C 1.488281 -12.5625 1.875 -12.703125 2.34375 -12.703125 C 2.8125 -12.703125 3.195312 -12.5625 3.5 -12.28125 C 3.800781 -12 3.953125 -11.648438 3.953125 -11.234375 C 3.953125 -10.816406 3.800781 -10.46875 3.5 -10.1875 C 3.195312 -9.90625 2.8125 -9.765625 2.34375 -9.765625 Z M 3.6875 -8.84375 L 3.6875 0 L 0.984375 0 L 0.984375 -8.84375 Z M 3.6875 -8.84375 "/></g></g></g><g fill="#f2f2f2" fill-opacity="1"><g transform="translate(287.808406, 225.316495)"><g><path d="M 3.6875 -7.59375 C 3.957031 -8.007812 4.320312 -8.34375 4.78125 -8.59375 C 5.25 -8.84375 5.796875 -8.96875 6.421875 -8.96875 C 7.148438 -8.96875 7.8125 -8.78125 8.40625 -8.40625 C 9 -8.039062 9.46875 -7.515625 9.8125 -6.828125 C 10.15625 -6.140625 10.328125 -5.34375 10.328125 -4.4375 C 10.328125 -3.53125 10.15625 -2.726562 9.8125 -2.03125 C 9.46875 -1.34375 9 -0.8125 8.40625 -0.4375 C 7.8125 -0.0625 7.148438 0.125 6.421875 0.125 C 5.804688 0.125 5.265625 0 4.796875 -0.25 C 4.328125 -0.507812 3.957031 -0.835938 3.6875 -1.234375 L 3.6875 4.21875 L 0.984375 4.21875 L 0.984375 -8.84375 L 3.6875 -8.84375 Z M 7.5625 -4.4375 C 7.5625 -5.113281 7.375 -5.644531 7 -6.03125 C 6.625 -6.414062 6.160156 -6.609375 5.609375 -6.609375 C 5.078125 -6.609375 4.617188 -6.410156 4.234375 -6.015625 C 3.859375 -5.628906 3.671875 -5.097656 3.671875 -4.421875 C 3.671875 -3.742188 3.859375 -3.207031 4.234375 -2.8125 C 4.617188 -2.425781 5.078125 -2.234375 5.609375 -2.234375 C 6.148438 -2.234375 6.609375 -2.429688 6.984375 -2.828125 C 7.367188 -3.222656 7.5625 -3.757812 7.5625 -4.4375 Z M 7.5625 -4.4375 "/></g></g></g><g fill="#f2f2f2" fill-opacity="1"><g transform="translate(298.578978, 225.316495)"><g><path d="M 4.578125 0.125 C 3.804688 0.125 3.117188 -0.00390625 2.515625 -0.265625 C 1.921875 -0.535156 1.445312 -0.898438 1.09375 -1.359375 C 0.75 -1.816406 0.550781 -2.332031 0.5 -2.90625 L 3.1875 -2.90625 C 3.21875 -2.59375 3.359375 -2.34375 3.609375 -2.15625 C 3.867188 -1.96875 4.179688 -1.875 4.546875 -1.875 C 4.890625 -1.875 5.148438 -1.9375 5.328125 -2.0625 C 5.515625 -2.195312 5.609375 -2.367188 5.609375 -2.578125 C 5.609375 -2.835938 5.476562 -3.023438 5.21875 -3.140625 C 4.957031 -3.265625 4.53125 -3.398438 3.9375 -3.546875 C 3.300781 -3.703125 2.769531 -3.859375 2.34375 -4.015625 C 1.925781 -4.179688 1.5625 -4.441406 1.25 -4.796875 C 0.945312 -5.148438 0.796875 -5.628906 0.796875 -6.234375 C 0.796875 -6.742188 0.9375 -7.207031 1.21875 -7.625 C 1.5 -8.039062 1.910156 -8.367188 2.453125 -8.609375 C 2.992188 -8.847656 3.640625 -8.96875 4.390625 -8.96875 C 5.503906 -8.96875 6.378906 -8.691406 7.015625 -8.140625 C 7.660156 -7.597656 8.03125 -6.875 8.125 -5.96875 L 5.609375 -5.96875 C 5.566406 -6.269531 5.429688 -6.507812 5.203125 -6.6875 C 4.984375 -6.875 4.6875 -6.96875 4.3125 -6.96875 C 4 -6.96875 3.753906 -6.90625 3.578125 -6.78125 C 3.410156 -6.65625 3.328125 -6.488281 3.328125 -6.28125 C 3.328125 -6.03125 3.460938 -5.835938 3.734375 -5.703125 C 4.003906 -5.578125 4.425781 -5.453125 5 -5.328125 C 5.65625 -5.160156 6.1875 -4.992188 6.59375 -4.828125 C 7.007812 -4.660156 7.375 -4.394531 7.6875 -4.03125 C 8 -3.664062 8.160156 -3.175781 8.171875 -2.5625 C 8.171875 -2.050781 8.023438 -1.59375 7.734375 -1.1875 C 7.441406 -0.78125 7.019531 -0.457031 6.46875 -0.21875 C 5.925781 0.0078125 5.296875 0.125 4.578125 0.125 Z M 4.578125 0.125 "/></g></g></g><g clip-path="url(#da005b3eb9)"><path fill="#f2f2f2" d="M 42.867188 137.417969 L 46.617188 137.417969 L 46.617188 245.683594 L 42.867188 245.683594 Z M 42.867188 137.417969 " fill-opacity="1" fill-rule="nonzero"/></g><g clip-path="url(#5719b39991)"><path fill="#f2f2f2" d="M 320.9375 137.417969 L 324.6875 137.417969 L 324.6875 245.683594 L 320.9375 245.683594 Z M 320.9375 137.417969 " fill-opacity="1" fill-rule="nonzero"/></g><g clip-path="url(#bfc0a1bfb8)"><path fill="#f2f2f2" d="M 42.863281 140.242188 L 42.863281 135.53125 L 324.691406 135.53125 L 324.691406 140.242188 Z M 42.863281 140.242188 " fill-opacity="1" fill-rule="nonzero"/></g><g clip-path="url(#eb89f631e3)"><path fill="#f2f2f2" d="M 183.777344 0.253906 L 183.777344 -3.5 L 461.851562 -3.5 L 461.851562 0.253906 Z M 183.777344 0.253906 " fill-opacity="1" fill-rule="nonzero"/></g><g clip-path="url(#4d51a5b4d3)"><path fill="#f2f2f2" d="M 42.871094 247.5625 L 42.871094 243.8125 L 324.691406 243.8125 L 324.691406 247.5625 Z M 42.871094 247.5625 " fill-opacity="1" fill-rule="nonzero"/></g></svg>